<?xml version="1.0" encoding="UTF-8"?>
<svg width="1200pt" height="1200pt" version="1.1" viewBox="0 0 1200 1200" xmlns="http://www.w3.org/2000/svg">
 <path d="m783.6 270c-49.199 0-98.398 6-146.4 18l-21.602 6v-9.6016c0-76.801 43.199-146.4 111.6-181.2 7.1992-3.6016 10.801-13.199 7.1992-20.398-3.6016-7.1992-13.199-10.801-20.398-7.1992-46.801 22.801-82.801 61.199-104.4 105.6-48-67.199-124.8-106.8-207.6-106.8-28.801 0-56.398 4.8008-84 14.398l-20.402 7.1992 10.801 15.602c48 70.801 127.2 112.8 211.2 112.8 25.199 0 50.398-3.6016 75.602-12-7.1992 22.801-10.801 46.801-10.801 70.801v9.6016l-21.602-4.8047c-48-12-97.199-18-146.4-18-180 0-326.4 145.2-326.4 324s73.199 352.8 201.6 477.6c45.594 44.398 105.59 68.398 169.2 68.398 19.199 0 39.602-2.3984 57.602-7.1992l80.398-20.398 80.398 20.398c19.199 4.8008 38.398 7.1992 57.602 7.1992 63.602 0 124.8-25.199 169.2-69.602l2.3984-2.3984c128.4-127.2 199.2-295.2 199.2-475.2 2.4023-177.6-144-322.8-324-322.8zm-238.8 478.8c-24 13.199-54 6-67.199-18-10.801-18-8.3984-42 6-57.602l66-73.199 19.199 97.199c4.8008 20.402-4.8008 40.801-24 51.602zm177.6-18c-13.199 24-43.199 31.199-67.199 18-18-10.801-27.602-31.199-24-52.801l19.199-97.199 66 73.199c14.402 18 16.801 40.801 6 58.801z" fill="#ff001b"/>
</svg>
