<?xml version="1.0" encoding="UTF-8"?>
<svg width="1200pt" height="1200pt" version="1.1" viewBox="0 0 1200 1200" xmlns="http://www.w3.org/2000/svg">
 <path d="m127.2 811.2c8.3984 13.199 15.602 27.602 22.801 42 12 22.801 22.801 43.199 34.801 56.398 136.8 136.8 429.6 57.602 588-92.398 182.4-172.8 110.4 162 366 38.398-102-37.199-124.8-130.8-170.4-187.2-24-30-58.801-56.398-103.2-61.199 61.199-120 98.398-272.4-3.6016-381.6-1.1992-1.1992-2.3984-1.1992-3.6016-2.3984l-10.801-3.6016h-4.8008l-10.801 3.6016c-1.1992 0-2.3984 1.1992-3.6016 2.3984 0.003906 0.003906 0.003906 1.2031 0.003906 1.2031-8.3984 16.801-38.398 76.801-57.602 135.6 0 0-20.398 62.398-55.199 132v1.1992c1.1992 4.8008 2.3984 9.6016 3.6016 15.602 1.1992 4.8008 2.3984 10.801 2.3984 16.801 1.1992 12 1.1992 24 0 36-1.1992 6-2.3984 12-3.6016 19.199-2.3984 6-3.6016 12-6 19.199-2.3984 6-6 12-8.3984 18-2.3984 6-6 10.801-9.6016 16.801-7.1992 10.801-15.602 20.398-24 30-8.3984 9.6016-18 16.801-26.398 25.199-9.6016 7.1992-19.199 14.398-27.602 20.398-8.3984 6-18 12-25.199 16.801-8.3984 4.8008-15.602 9.6016-21.602 13.199-7.1992 3.6016-12 7.1992-16.801 9.6016-9.6016 4.8008-15.602 8.3984-15.602 8.3984s4.8008-3.6016 14.398-9.6016c4.8008-2.3984 9.6016-7.1992 16.801-10.801 6-3.6016 13.199-9.6016 20.398-14.398 7.1992-6 15.602-12 24-18 8.3984-7.1992 16.801-14.398 25.199-22.801 7.1992-8.3984 16.801-16.801 24-26.398 7.1992-9.6016 15.602-19.199 20.398-30 3.6016-4.8008 6-10.801 8.3984-15.602 2.3984-6 4.8008-10.801 6-16.801s2.3984-10.801 3.6016-16.801c0-6 1.1992-10.801 1.1992-16.801 0-10.801-1.1992-21.602-2.3984-31.199 0-1.1992 0-2.3984-1.1992-3.6016-40.801-114-183.6-213.6-378-182.4 98.398 32.398 379.2 200.4 177.6 333.6-73.199 49.199-170.4 54-248.4 48h-15.602c-9.6016 0-25.199-3.6016-39.602-8.3984-13.191-7.1992-85.191-70.801-85.191-70.801l-48 31.199v48s54 67.199 63.602 79.199c1.1992 2.4023 2.3984 3.6016 3.5977 4.8008z" fill="#ffd65b"/>
</svg>
