<?xml version="1.0" encoding="UTF-8"?>
<svg width="1200pt" height="1200pt" version="1.1" viewBox="0 0 1200 1200" xmlns="http://www.w3.org/2000/svg">
 <path d="m750 120h-78c-12 0-24-2.3984-36-7.1992-2.3984-1.1992-4.8008-2.3984-7.1992-3.6016 0-6 1.1992-12 1.1992-18 0-8.3984-7.1992-15.602-15.602-15.602h-30c-8.3984 0-15.602 7.1992-15.602 15.602 0 28.801 4.8008 55.199 14.398 80.398-15.602 39.602-39.602 76.801-66 117.6-63.602 98.398-142.8 219.6-142.8 430.8-12-1.1992-25.199-4.8008-37.199-7.1992-18-4.8008-36-8.3984-54-8.3984-25.199 0-46.801 8.3984-63.602 25.199-45.602 45.602-70.801 105.6-70.801 169.2 0 63.602 25.199 124.8 70.801 169.2 45.602 45.602 105.6 70.801 169.2 70.801 63.602 0 124.8-25.199 169.2-70.801 15.602-15.602 28.801-33.602 39.602-52.801 10.801 19.199 24 38.398 40.801 54 45.602 45.602 105.6 70.801 169.2 70.801 63.602 0 124.8-25.199 169.2-70.801 45.602-45.602 70.801-105.6 70.801-169.2 0-63.602-25.199-124.8-70.801-169.2-16.801-16.801-39.602-26.398-64.801-26.398-18 0-36 3.6016-54 8.3984-12 2.3984-24 4.8008-36 7.1992 0-211.2-79.199-332.4-142.8-430.8-26.398-40.801-51.602-79.199-66-117.6 3.6016-9.6016 6-20.398 8.3984-31.199 14.398 7.1992 31.199 10.801 48 10.801h62.398c6 225.6 145.2 360 374.4 360 8.3984 0 15.602-7.1992 15.602-15.602 3.6133-235.2-136.79-375.6-371.99-375.6zm-456 684c-25.199 25.199-38.398 58.801-38.398 94.801 0 8.3984-7.1992 15.602-15.602 15.602-8.3984 0-15.602-7.1992-15.602-15.602 0-43.199 16.801-85.199 48-116.4 6-6 15.602-6 21.602 0 6 5.9961 6 15.598 0 21.598zm420 1.1992c-25.199 25.199-39.602 58.801-39.602 94.801 0 8.3984-7.1992 15.602-15.602 15.602-8.3984 0-15.602-7.1992-15.602-15.602 0-44.398 16.801-85.199 48-116.4 6-6 15.602-6 21.602 0 6.0039 6 7.2031 15.598 1.2031 21.598zm-56.398-500.4c64.801 99.602 138 212.4 138 414-12-1.1992-24-3.6016-36-7.1992-18-3.6016-36-8.3984-54-8.3984-26.398 0-48 8.3984-64.801 26.398-15.602 15.602-28.801 33.602-39.602 52.801-10.801-19.199-24-38.398-40.801-54-16.801-16.801-38.398-25.199-63.602-25.199-18 0-36 4.8008-54 8.3984-12 2.3984-24 6-37.199 7.1992 0-201.6 73.199-314.4 138-414 21.602-33.602 42-64.801 57.602-96 14.402 31.199 34.801 62.398 56.402 96z" fill="#ff001b"/>
</svg>
