<?xml version="1.0" encoding="UTF-8"?>
<svg width="1200pt" height="1200pt" version="1.1" viewBox="0 0 1200 1200" xmlns="http://www.w3.org/2000/svg">
 <g fill="#8444ab">
  <path d="m728.4 76.801c-68.398 33.602-114 97.199-124.8 170.4 9.6016 8.3984 19.199 19.199 27.602 30 2.3984-74.398 44.398-140.4 111.6-174 7.1992-3.6016 10.801-13.199 7.1992-20.398-4.8008-7.1992-14.398-9.6016-21.602-6z"/>
  <path d="m759.6 1057.2c49.199 0 91.199-39.602 100.8-92.398-13.199 3.6016-26.398 4.8008-39.602 4.8008-16.801 0-32.398-2.3984-48-8.3984-14.398-4.8008-26.398-12-38.398-20.398 7.1992 20.398 10.801 42 10.801 64.801 0 16.801-2.3984 32.398-6 48 7.1953 2.3945 14.398 3.5938 20.398 3.5938z"/>
  <path d="m584.4 1155.6c73.199 0 132-66 132-148.8 0-48-20.398-91.199-52.801-118.8-19.199 12-42 19.199-66 19.199-10.801 0-21.602-1.1992-32.398-4.8008-8.3984 13.199-18 26.398-30 38.398-22.801 22.801-51.602 39.602-82.801 49.199 0 4.8008-1.1992 10.801-1.1992 16.801 1.1992 81.602 60 148.8 133.2 148.8z"/>
  <path d="m266.4 770.4c9.6016-20.398 22.801-40.801 39.602-57.602 15.602-15.602 32.398-27.602 51.602-36-6-10.801-9.6016-22.801-13.199-34.801-6-24-4.8008-49.199 0-73.199-19.199 8.3984-40.801 13.199-63.602 13.199-18 0-37.199-3.6016-55.199-8.3984-1.1992 1.1992-2.3984 2.3984-3.6016 3.6016-49.199 49.199-54 123.6-10.801 166.8 15.602 13.199 33.602 22.801 55.199 26.398z"/>
  <path d="m404.4 967.2c39.602 0 79.199-16.801 109.2-46.801 8.3984-8.3984 16.801-19.199 22.801-28.801-43.199-24-72-73.199-72-129.6 0-6 0-12 1.1992-16.801-20.398-1.1992-38.398-6-56.398-15.602-13.199-7.1992-25.199-16.801-34.801-28.801-16.801 8.3984-33.602 19.199-46.801 32.398-57.602 57.602-62.398 146.4-12 198 22.801 24.008 54.004 36.008 88.801 36.008z"/>
  <path d="m955.2 835.2c8.3984-25.199 10.801-50.398 7.1992-75.602h-12c-42 0-84-15.602-117.6-44.398-24 15.602-52.801 25.199-82.801 25.199-7.1992 0-14.398-1.1992-22.801-1.1992 1.1992 7.1992 1.1992 14.398 1.1992 21.602 0 32.398-9.6016 62.398-26.398 86.398 1.1992 4.8008 3.6016 9.6016 4.8008 14.398 14.398 33.602 40.801 58.801 74.398 70.801 12 4.8008 25.199 6 38.398 6 60.008 1.2031 115.21-42 135.61-103.2z"/>
  <path d="m918 420c40.801 0 81.602 15.602 115.2 42 15.602-22.801 24-49.199 25.199-75.602 2.3984-37.199-10.801-70.801-34.801-96-22.801-22.801-54-36-88.801-36-30 0-60 9.6016-85.199 26.398 36 32.398 58.801 82.801 58.801 138v1.1992c3.6016 1.2031 7.2031 0.003906 9.6016 0.003906z"/>
  <path d="m1028.4 498c-30-30-69.602-46.801-109.2-46.801h-12c-4.8008 28.801-15.602 56.398-32.398 78 7.1992 14.398 13.199 28.801 15.602 44.398 8.3984 40.801-1.1992 80.398-24 112.8-2.3984 3.6016-6 7.1992-8.3984 10.801 27.602 21.602 61.199 33.602 94.801 33.602 33.602 0 66-12 88.801-36 49.195-50.402 44.395-139.2-13.207-196.8z"/>
  <path d="m171.6 504c30 30 69.602 46.801 109.2 46.801 31.199 0 60-10.801 81.602-28.801 4.8008-7.1992 9.6016-14.398 14.398-21.602-24-31.199-37.199-70.801-37.199-114 0-25.199 4.8008-50.398 14.398-72-28.801-27.602-67.199-43.199-105.6-43.199-33.602 0-66 12-88.801 36-25.199 25.199-37.199 58.801-34.801 96 2.4023 37.199 19.203 73.199 46.805 100.8z"/>
  <path d="m747.6 271.2c-37.199 0-72 18-96 46.801 8.3984 21.602 13.199 44.398 13.199 69.602 0 24-4.8008 46.801-12 67.199 20.398-10.801 44.398-16.801 69.602-16.801 36 0 72 12 102 34.801 12 9.6016 22.801 19.199 32.398 31.199 14.398-24 22.801-52.801 22.801-84 0-82.801-60-148.8-132-148.8z"/>
  <path d="m496.8 440.4c21.602 0 42 4.8008 61.199 15.602 15.602 8.3984 28.801 19.199 39.602 33.602 22.801-26.398 37.199-62.398 37.199-102 0-81.602-58.801-148.8-132-148.8s-132 66-132 148.8c0 34.801 10.801 67.199 28.801 92.398 27.598-25.199 61.199-39.602 97.199-39.602z"/>
  <path d="m373.2 634.8c7.1992 30 25.199 55.199 50.398 68.398 14.398 8.3984 30 12 46.801 12h1.1992c16.801-52.801 60-92.398 114-98.398-8.3984-28.801-7.1992-60 2.3984-87.602-9.6016-20.398-24-36-43.199-46.801-14.398-8.3984-30-12-46.801-12-43.199 0-86.398 27.602-109.2 69.602-17.996 30-22.797 63.602-15.598 94.801z"/>
  <path d="m750 711.6c37.199 0 70.801-15.602 91.199-43.199 19.199-25.199 25.199-56.398 19.199-88.801-6-32.398-25.199-62.398-54-84-25.199-19.199-55.199-28.801-84-28.801-37.199 0-70.801 15.602-91.199 43.199-22.801 31.199-26.398 70.801-13.199 108 46.801 8.3984 86.398 43.199 103.2 90 8.4023 2.3984 19.199 3.6016 28.801 3.6016z"/>
  <path d="m596.4 877.2c56.398 0 102-51.602 102-115.2 0-63.602-45.602-115.2-102-115.2-56.398 0-102 51.602-102 115.2 0 63.602 45.602 115.2 102 115.2z"/>
 </g>
</svg>
