<?xml version="1.0" encoding="UTF-8"?>
<svg width="1200pt" height="1200pt" version="1.1" viewBox="0 0 1200 1200" xmlns="http://www.w3.org/2000/svg">
 <path d="m870 603.6-18-15.602c-48-40.801-80.398-97.199-93.602-158.4l-1.1992-12c-4.8008-72-58.801-130.8-127.2-145.2 3.6016-67.199 42-126 103.2-156l-26.398-54c-50.398 25.199-90 66-112.8 115.2-50.398-73.203-134.4-117.6-223.2-117.6-30 0-60 4.8008-88.801 15.602l-37.199 13.199 21.602 32.398c50.398 74.398 134.4 120 224.4 120 28.801 0 57.602-4.8008 86.398-14.398-3.6016 15.602-6 31.199-7.1992 46.801-69.602 13.199-123.6 72-128.4 145.2l-1.1992 12c-12.004 60-44.402 116.4-92.402 157.2l-18 15.602c-76.801 66-120 160.8-120 261.6v13.199c0 145.2 117.6 262.8 262.8 262.8h13.199c39.602 0 79.199-9.6016 115.2-26.398 36 16.801 75.602 26.398 115.2 26.398h13.199c145.2 0 262.8-117.6 262.8-262.8v-14.402c-2.3984-99.602-45.598-195.6-122.4-260.4z" fill="#70d258"/>
</svg>
