<?xml version="1.0" encoding="UTF-8"?>
<svg width="1200pt" height="1200pt" version="1.1" viewBox="0 0 1200 1200" xmlns="http://www.w3.org/2000/svg">
 <path d="m1050 502.8c0-60-42-110.4-97.199-124.8 20.398-30 30-63.602 22.801-99.602-2.3984-9.6016-8.3984-18-18-21.602-8.3984-3.6016-19.199-3.6016-27.602 2.3984-62.398 37.199-114 55.199-147.6 63.602l-57.602-102c-6-10.801-18-16.801-30-14.398-12 1.1992-21.602 10.801-25.199 22.801-7.1992 28.801-28.801 63.602-55.199 92.398v-37.199c0-70.801 39.602-135.6 103.2-166.8l-26.398-54c-84 42-136.8 127.2-136.8 220.8v61.199l-156-156c-7.1992-7.1992-16.801-9.6016-26.398-8.3984-9.6016 1.1992-18 7.1992-21.602 15.602-13.199 27.602-21.602 56.398-25.199 86.398l-115.2-69.602c-9.6016-6-20.398-6-30 0-9.6016 4.8008-15.602 14.398-15.602 25.199-1.1992 38.398 13.199 100.8 61.199 145.2-45.602 20.398-76.801 64.801-76.801 117.6 0 27.602 8.3984 52.801 24 74.398-14.398 20.398-24 46.801-24 74.398 0 44.398 22.801 84 57.602 106.8-4.8008 14.398-8.3984 28.801-8.3984 45.602 0 61.199 42 111.6 98.398 124.8 1.1992 61.199 44.398 111.6 102 124.8 12 57.602 63.602 102 126 102 33.602 0 63.602-13.199 86.398-33.602 22.801 20.398 52.801 33.602 86.398 33.602 61.199 0 114-43.199 126-102 57.602-12 102-63.602 102-126v-7.1992c44.398-20.398 74.398-64.801 74.398-116.4 0-21.602-6-42-14.398-60 24-24 39.602-56.398 39.602-92.398 0-20.398-4.8008-39.602-13.199-56.398 24.004-22.805 38.402-55.203 38.402-91.203zm-85.199 148.8c0 38.398-31.199 68.398-68.398 68.398-26.398 0-49.199-14.398-61.199-36 2.3984-10.801 4.8008-21.602 4.8008-32.398 0-10.801-1.1992-21.602-4.8008-32.398 2.3984-4.8008 4.8008-8.3984 8.3984-13.199 21.602 15.602 48 25.199 76.801 25.199 13.199 0 26.398-2.3984 39.602-6 3.5977 8.3984 4.7969 16.797 4.7969 26.398zm-24 152.4c0 38.398-31.199 68.398-68.398 68.398-37.199 0-68.398-31.199-68.398-68.398 0-18 7.1992-34.801 19.199-48 21.602 14.398 46.801 24 74.398 24 13.199 0 25.199-2.3984 37.199-6 3.5977 9.6016 6 19.199 6 30zm-242.4 291.6c-27.602 0-51.602-15.602-62.398-39.602 28.801-2.3984 54-14.398 74.398-33.602 14.398 13.199 32.398 22.801 51.602 28.801-9.6016 25.199-33.602 44.402-63.602 44.402zm-434.4-316.8c4.8008 0 9.6016 1.1992 14.398 1.1992 18 0 33.602-3.6016 49.199-9.6016 7.1992 2.3984 14.398 4.8008 22.801 7.1992-1.1992 8.4023-2.3984 16.801-2.3984 26.402 0 21.602 4.8008 42 14.398 60-9.6016 6-21.602 9.6016-33.602 9.6016-38.398 0-68.398-31.199-68.398-68.398-1.1992-9.6016 1.2031-18.004 3.6016-26.402zm-54-276c0-38.398 31.199-68.398 68.398-68.398h8.3984c-12 20.398-19.199 43.199-19.199 68.398s7.1992 48 19.199 68.398h-8.3984c-37.199 0-68.398-30-68.398-68.398zm28.801-201.6 90 54c1.1992 7.1992 2.3984 13.199 4.8008 20.398-54-13.199-81.602-45.598-94.801-74.398zm682.8 270c-16.801 0-32.398-6-44.398-16.801 7.1992-15.602 10.801-33.602 10.801-52.801 0-19.199-3.6016-36-10.801-52.801 12-10.801 27.602-16.801 44.398-16.801 38.398 0 68.398 31.199 68.398 68.398 0 37.207-31.199 70.805-68.398 70.805zm-531.6-306 130.8 130.8c-39.602 9.6016-82.801 6-121.2-10.801-15.602-37.199-19.203-80.398-9.6016-120zm235.2 730.8c-38.398 0-68.398-31.199-68.398-68.398 0-9.6016 2.3984-19.199 6-26.398 4.8008-4.8008 9.6016-9.6016 14.398-14.398 24 28.801 58.801 46.801 98.398 46.801 6 0 13.199-1.1992 19.199-1.1992-3.5977 34.793-33.598 63.594-69.598 63.594zm-316.8-344.4c0-8.3984 1.1992-16.801 4.8008-24 8.3984-2.3984 16.801-6 24-9.6016 18 9.6016 37.199 14.398 58.801 14.398h10.801c-1.1992 6-1.1992 13.199-1.1992 20.398 0 20.398 4.8008 38.398 13.199 55.199-10.801 8.3984-25.199 13.199-40.801 13.199-38.398-1.1953-69.602-32.395-69.602-69.594zm483.6-208.8c21.602 12 36 34.801 36 60 0 38.398-31.199 68.398-68.398 68.398-25.199 0-46.801-13.199-58.801-33.602 3.6016-10.801 4.8008-22.801 4.8008-36 0-13.199-2.3984-24-4.8008-36 1.1992-2.3984 2.3984-4.8008 4.8008-6 28.797-1.1992 57.598-7.1992 86.398-16.797zm-12 208.8c0 38.398-31.199 68.398-68.398 68.398-22.801 0-43.199-10.801-55.199-27.602 4.8008-13.199 7.1992-26.398 7.1992-40.801 0-14.398-2.3984-27.602-7.1992-40.801 3.6016-6 8.3984-10.801 14.398-14.398 22.801 21.602 54 36 88.801 36 6 0 12 0 18-1.1992 1.1992 6 2.3984 13.199 2.3984 20.402zm-37.199 152.4c0 38.398-31.199 68.398-68.398 68.398-38.398 0-68.398-31.199-68.398-68.398 0-21.602 9.6016-39.602 25.199-52.801 21.602 18 50.398 28.801 81.602 28.801 9.6016 0 18-1.1992 26.398-2.3984 2.3984 8.3984 3.5977 16.797 3.5977 26.398zm-208.8-84c-38.398 0-68.398-31.199-68.398-68.398 0-21.602 9.6016-40.801 25.199-52.801 22.801 20.398 52.801 33.602 86.398 33.602 8.3984 0 15.602-1.1992 22.801-2.3984 2.3984 7.1992 3.6016 14.398 3.6016 21.602-1.2031 37.195-32.402 68.395-69.602 68.395zm111.6-217.2c0 38.398-31.199 68.398-68.398 68.398s-68.398-31.199-68.398-68.398c0-18 7.1992-33.602 18-45.602 13.199-2.3984 27.602-6 39.602-12 20.398 7.1992 42 10.801 63.602 14.398 9.5938 12.004 15.594 26.402 15.594 43.203zm-273.6-63.602c25.199 12 51.602 19.199 79.199 21.602 1.1992 1.1992 2.3984 2.3984 3.6016 3.6016-3.6016 12-6 25.199-6 38.398s2.3984 26.398 6 38.398c-12 18-33.602 30-57.602 30-38.398 0-68.398-31.199-68.398-68.398-1.1992-28.801 16.801-54 43.199-63.602zm36 364.8c0-10.801 2.3984-20.398 6-28.801 15.602-4.8008 28.801-12 42-21.602 21.602 16.801 49.199 26.398 78 26.398h7.1992c2.3984 7.1992 4.8008 15.602 4.8008 24 0 38.398-31.199 68.398-68.398 68.398-37.203 0.003907-69.602-31.195-69.602-68.395zm428.4-404.4c-4.8008-3.6016-9.6016-6-14.398-9.6016l-8.3984-14.398c25.199-7.1992 55.199-18 91.199-34.801-14.402 22.801-39.602 43.199-68.402 58.801zm-82.797-8.4023c-43.199 12-88.801 13.199-132 6 31.199-26.398 60-61.199 80.398-96zm-534 225.6c9.6016 4.8008 20.398 9.6016 31.199 12-1.1992 7.1992-2.3984 14.398-2.3984 22.801 0 25.199 7.1992 48 19.199 68.398-33.602-4.8008-58.801-33.602-58.801-68.398 1.1992-13.203 4.8008-24 10.801-34.801zm182.4 292.8c20.398 14.398 46.801 24 74.398 24 6 0 13.199-1.1992 19.199-1.1992-2.3984 36-32.398 64.801-68.398 64.801-37.199 0-68.398-30-68.398-67.199 15.598-4.8047 30-12.004 43.199-20.402zm123.6 100.8c12 14.398 27.602 26.398 45.602 34.801 1.1992 9.6016 3.6016 18 7.1992 26.398-13.199 14.398-31.199 24-52.801 24-28.801 0-54-18-63.602-43.199 25.199-8.3984 48-22.797 63.602-42zm272.4-14.398c-20.398 0-39.602-9.6016-52.801-24 4.8008-14.398 8.3984-28.801 8.3984-44.398 0-7.1992-1.1992-14.398-2.3984-20.398 8.3984-6 14.398-13.199 21.602-20.398 22.801 26.398 56.398 44.398 93.602 45.602-2.4023 35.992-32.402 63.594-68.402 63.594z" fill="#ce0060"/>
</svg>
