<?xml version="1.0" encoding="UTF-8"?>
<svg width="1200pt"
     height="1200pt"
     version="1.1"
     viewBox="0 0 1200 1200"
     xmlns="http://www.w3.org/2000/svg">
  <path d="m960 987.6c42-51.602 69.602-114 86.398-177.6 14.398-56.398 24-118.8 19.199-177.6-9.5977-118.8-69.598-237.6-160.8-315.6-20.398-18-43.199-33.602-67.199-46.801-56.398-32.398-121.2-51.602-192-57.602 9.6016-22.801 24-44.398 42-62.398 10.801-9.6016 21.602-18 33.602-26.398 2.3984-1.1992 13.199-6 13.199-8.3984-1.2031-2.4023-2.4023-4.8047-4.8008-7.2031-7.1992-14.398-14.398-30-22.801-44.398-22.801 10.801-43.199 26.398-61.199 43.199-28.801 27.602-50.398 62.398-62.398 99.602 0 1.1992-1.1992 2.3984-1.1992 3.6016-61.199 1.1992-116.4 12-165.6 30-63.602 22.801-121.2 62.398-165.6 112.8-78 90-105.6 201.6-115.2 278.4-15.602 133.2 24 268.8 108 363.6 45.602 51.602 104.4 90 170.4 114 38.398 14.398 80.398 22.801 124.8 27.602 22.801 0 46.801 3.6016 70.801 2.3984 24 0 48-2.3984 72-6 50.398-6.0039 98.398-19.203 144-40.805 36-16.801 68.398-38.398 98.398-66l21.602-21.602c2.3984-3.6016 6-6 8.3984-9.6016 0 0.003906 10.801-11.996 6-7.1953l1.1992-1.1992c0-0.003906-1.1992 1.1992-1.1992 1.1992l1.1992-1.1992c0-0.003906 0-0.003906-1.1992 1.1992l1.1992-1.1992c0-0.003906 0-0.003906-1.1992 1.1992 10.801-12 20.398-25.199 31.199-38.398-10.801 13.195-20.398 25.195-31.199 38.398 10.801-13.199 20.398-25.199 31.199-38.398-10.801 13.195-20.398 25.195-31.199 38.398 10.801-13.199 20.398-25.199 31.199-38.398-10.801 13.195-20.398 25.195-31.199 38.398 70.801-86.402-1.1992 1.1992 0 0zm-446.4 85.199c0-13.199 0-27.602-6-38.398-10.801-20.398-54-30-62.398-55.199-7.1992-22.801 21.602-56.398 15.602-82.801-4.8008-24-45.602-42-49.199-68.398-3.6016-24 31.199-52.801 28.801-79.199-1.1992-25.199-39.602-49.199-39.602-74.398s37.199-50.398 39.602-74.398c1.1992-26.398-32.398-55.199-28.801-79.199 3.6016-26.398 44.398-44.398 49.199-68.398 6-26.398-22.801-60-15.602-82.801 8.3984-26.398 52.801-34.801 62.398-55.199 6-10.801 6-25.199 6-38.398 14.398-2.3984 30-3.6016 46.801-4.8008-6 7.1992-10.801 14.398-12 22.801-2.3984 19.199 24 43.199 21.602 66-2.3984 19.199-33.602 38.398-34.801 60-1.1992 20.398 26.398 43.199 26.398 64.801-1.1992 20.398-31.199 40.801-32.398 62.398-1.1992 20.398 28.801 42 28.801 63.602 0 20.398-30 42-30 63.602 0 21.602 30 42 30 63.602s-28.801 43.199-28.801 63.602c1.1992 21.602 31.199 42 32.398 62.398 1.1992 21.602-27.602 44.398-26.398 64.801 1.1992 21.602 32.398 40.801 34.801 60 2.3984 22.801-25.199 46.801-21.602 66 1.1992 8.3984 6 15.602 12 22.801-15.602-0.015626-31.203-2.418-46.801-4.8164zm-189.6-84c-2.3984-19.199-3.6016-38.398-12-52.801-15.602-26.398-62.398-39.602-73.199-69.602-10.801-28.801 16.801-68.398 12-100.8-4.8008-30-44.398-58.801-44.398-91.199 0-32.398 39.602-60 44.398-91.199 4.8008-31.199-20.398-69.602-12-98.398 2.3984-3.6016 3.6016-8.3984 6-12 15.602-24 54-36 68.398-60 7.1992-13.199 9.6016-30 10.801-46.801 31.199-28.801 69.602-54 117.6-70.801-1.1992 14.398-3.6016 28.801-10.801 38.398-14.398 19.199-58.801 21.602-69.602 44.398-10.801 21.602 14.398 58.801 6 82.801-7.1992 22.801-49.199 37.199-55.199 62.398-4.8008 24 27.602 54 25.199 79.199-2.3984 24-40.801 46.801-40.801 72s38.398 48 40.801 72c2.3984 25.199-30 55.199-25.199 79.199 4.8008 25.199 46.801 39.602 55.199 62.398 8.3984 24-16.801 61.199-6 82.801 12 22.801 56.398 25.199 69.602 44.398 7.1992 9.6016 8.3984 24 10.801 38.398-44.402-14.391-84-35.988-117.6-64.789zm318 90c6-7.1992 10.801-14.398 12-22.801 2.3984-19.199-24-43.199-21.602-66 2.3984-19.199 33.602-38.398 34.801-60 1.1992-20.398-26.398-43.199-26.398-64.801 1.1992-20.398 31.199-40.801 32.398-62.398 1.1992-20.398-28.801-42-28.801-63.602 0-20.398 30-42 30-63.602 0-21.602-30-42-30-63.602 0-21.602 28.801-43.199 28.801-63.602-1.1992-21.602-31.199-42-32.398-62.398-1.1992-21.602 27.602-44.398 26.398-64.801-1.1992-21.602-32.398-40.801-34.801-60-2.3984-22.801 25.199-46.801 21.602-66-1.1992-8.3984-6-15.602-12-22.801 15.602 1.1992 31.199 3.6016 46.801 6 0 13.199 0 27.602 6 37.199 10.801 20.398 54 30 62.398 55.199 7.1992 22.801-21.602 56.398-15.602 82.801 4.8008 24 45.602 42 49.199 68.398 3.6016 24-31.199 52.801-28.801 79.199 1.1992 25.199 39.602 49.199 39.602 74.398 0 25.199-37.199 50.398-39.602 74.398-1.1992 26.398 32.398 55.199 28.801 79.199-3.6016 26.398-44.398 44.398-49.199 68.398-6 26.398 22.801 60 15.602 82.801-8.3984 26.398-52.801 34.801-62.398 55.199-6 10.801-6 25.199-6 38.398-15.602 2.4141-31.199 3.6172-46.801 4.8164zm118.8-22.801c1.1992-14.398 3.6016-30 10.801-39.602 14.398-19.199 58.801-21.602 69.602-44.398 10.801-21.602-14.398-58.801-6-82.801 7.1992-22.801 49.199-37.199 55.199-62.398 4.8008-24-27.602-54-25.199-79.199 2.3984-24 40.801-46.801 40.801-72 0-25.199-38.398-48-40.801-72-2.3984-25.199 30-55.199 25.199-79.199-4.8008-25.199-46.801-39.602-55.199-62.398-8.3984-24 16.801-61.199 6-82.801-12-22.801-56.398-25.199-69.602-44.398-6-8.3984-8.3984-21.602-9.6016-34.801 44.398 18 84 43.199 118.8 75.602 1.1992 14.398 3.6016 28.801 10.801 39.602 12 19.199 40.801 32.398 58.801 49.199 6 10.801 12 20.398 16.801 31.199 2.3984 27.602-19.199 61.199-14.398 88.801 4.8008 30 44.398 58.801 44.398 91.199 0 32.398-39.602 60-44.398 91.199-4.8008 31.199 22.801 72 12 100.8-10.801 30-57.602 43.199-73.199 69.602-8.3984 14.398-9.6016 33.602-12 52.801-36.004 29.992-76.805 51.594-118.8 65.992z"
        fill="#70d258" />
</svg>